<svg id="Capa_1" data-name="Capa 1" xmlns="http://www.w3.org/2000/svg" viewBox="0 0 219.04 192.49"><defs><style>.cls-1{fill:#fff;}</style></defs><path class="cls-1" d="M6.84,24.06H212.22c3.78,0,6.84-5.39,6.84-12S216,0,212.22,0H6.84C3.06,0,0,5.39,0,12S3.06,24.06,6.84,24.06Z"/><path class="cls-1" d="M212.22,84.22H6.84c-3.77,0-6.82,5.37-6.82,12s3.05,12,6.82,12H212.22c3.77,0,6.82-5.37,6.82-12S216,84.22,212.22,84.22Z"/><path class="cls-1" d="M212.22,168.43H75.31c-3.78,0-6.84,5.39-6.84,12s3.06,12,6.84,12H212.22c3.78,0,6.84-5.39,6.84-12S216,168.43,212.22,168.43Z"/></svg>